<svg xmlns="http://www.w3.org/2000/svg" xmlns:xlink="http://www.w3.org/1999/xlink" width="64" height="64" viewBox="0 0 64 64">
  <defs>
    <linearGradient id="rider-b" x1="7.932%" x2="97.448%" y1="22.465%" y2="61.04%">
      <stop offset="0%" stop-color="#FDB60D"/>
      <stop offset="100%" stop-color="#DD1265"/>
    </linearGradient>
    <polygon id="rider-a" points="19.5 0 3.51 16.436 19.828 37.665 55.521 40.718 64.001 25.5"/>
    <linearGradient id="rider-d" x1="50%" x2="76.422%" y1="15.891%" y2="88.65%">
      <stop offset="0%" stop-color="#087CFA"/>
      <stop offset="31.48%" stop-color="#DD1265"/>
      <stop offset="100%" stop-color="#087CFA"/>
    </linearGradient>
    <polygon id="rider-c" points="25.243 15.979 10.793 45.903 45.501 64 64.001 53 45.975 14.754 40.377 1.015"/>
    <linearGradient id="rider-f" x1="51.827%" x2="33.136%" y1="96.196%" y2="24.118%">
      <stop offset="0%" stop-color="#FDB60D"/>
      <stop offset="100%" stop-color="#DD1265"/>
    </linearGradient>
    <polygon id="rider-e" points="19.5 0 0 12.927 7.135 57.02 24.542 64.097 49.324 44.779"/>
    <linearGradient id="rider-h" x1="50%" x2="50%" y1="-11.618%" y2="60.589%">
      <stop offset="0%" stop-color="#A6A5A5"/>
      <stop offset="0%" stop-color="#989898" stop-opacity=".568"/>
      <stop offset="100%"/>
    </linearGradient>
    <polygon id="rider-g" points="0 40 40 40 40 0 0 0"/>
  </defs>
  <g fill="none" fill-rule="evenodd">
    <use fill="#DD1265" xlink:href="#rider-a"/>
    <use fill="url(#rider-b)" xlink:href="#rider-a"/>
    <use fill="#087CFA" xlink:href="#rider-c"/>
    <use fill="url(#rider-d)" xlink:href="#rider-c"/>
    <use fill="#DD1265" xlink:href="#rider-e"/>
    <use fill="url(#rider-f)" xlink:href="#rider-e"/>
    <g transform="translate(12 12)">
      <use fill="#000" xlink:href="#rider-g"/>
      <use fill="url(#rider-h)" xlink:href="#rider-g"/>
      <path fill="#FFF" d="M11.2466 13.2568C12.1356 13.2568 12.8156 13.0388 13.2926 12.6018 13.7676 12.1648 14.0056 11.5818 14.0056 10.8528L14.0056 10.8048C14.0056 9.9948 13.7556 9.3878 13.2566 8.9828 12.7576 8.5788 12.0646 8.3758 11.1766 8.3758L7.6006 8.3758 7.6006 13.2568 11.2466 13.2568zM3.9996 4.9998L11.4806 4.9998C13.5536 4.9998 15.1426 5.5748 16.2496 6.7238 17.1836 7.6948 17.6516 8.9908 17.6516 10.6098L17.6516 10.6588C17.6516 12.0348 17.3276 13.1568 16.6816 14.0218 16.0346 14.8878 15.1896 15.5248 14.1446 15.9288L18.1426 21.9998 13.9346 21.9998 10.5486 16.7788 7.5796 16.7788 7.6006 21.9998 3.9996 21.9998 3.9996 4.9998zM23.6182 8.3755L23.6182 18.6245 26.4132 18.6245C29.3732 18.6245 31.3692 16.5605 31.3692 13.5485L31.3692 13.5005C31.3692 10.4895 29.3732 8.3755 26.4132 8.3755L23.6182 8.3755zM20.0002 5.0005L26.4132 5.0005C31.5812 5.0005 35.1522 8.6675 35.1522 13.4515L35.1522 13.5005C35.1522 18.2845 31.5812 22.0005 26.4132 22.0005L20.0002 22.0005 20.0002 5.0005z"/>
      <polygon fill="#FFF" points="4 35 19 35 19 32.5 4 32.5"/>
    </g>
  </g>
</svg>
